/* XPM */
static char *_3a904dde21a426ca40130fe85bf528evvw9fazEzfKNDChe[] = {
/* columns rows colors chars-per-pixel */
"60 60 130 2 ",
"   c #16525D",
".  c #18535E",
"X  c #1B5661",
"o  c #1E5963",
"O  c #225B66",
"+  c #245E69",
"@  c #26616C",
"#  c #2C646E",
"$  c #2D6670",
"%  c #2D6974",
"&  c #316670",
"*  c #346A73",
"=  c #396C76",
"-  c #326E79",
";  c #36727D",
":  c #3D737C",
">  c #43747D",
",  c #3B7782",
"<  c #3C7984",
"1  c #407781",
"2  c #467C86",
"3  c #4B7A82",
"4  c #497F89",
"5  c #517E86",
"6  c #42808B",
"7  c #4C828C",
"8  c #54828B",
"9  c #5A858C",
"0  c #478590",
"q  c #4C8A95",
"w  c #4F8D98",
"e  c #558B94",
"r  c #5F8890",
"t  c #528E99",
"y  c #54929D",
"u  c #638B93",
"i  c #659097",
"p  c #699097",
"a  c #6F969C",
"s  c #5B96A1",
"d  c #5B98A3",
"f  c #5E9DA8",
"g  c #639AA4",
"h  c #639DA8",
"j  c #6B9FA8",
"k  c #779AA1",
"l  c #7D9EA4",
"z  c #64A2AD",
"x  c #6BA2AD",
"c  c #7FA0A6",
"v  c #71A5AE",
"b  c #67A6B1",
"n  c #6BA7B2",
"m  c #6CAAB5",
"M  c #6EADB9",
"N  c #72A7B0",
"B  c #73ACB6",
"V  c #7AACB5",
"C  c #71AEB9",
"Z  c #7EAFB8",
"A  c #6FB1BD",
"S  c #72B2BE",
"D  c #7AB3BD",
"F  c #76B5C0",
"G  c #7AB6C2",
"H  c #7DB9C4",
"J  c #81A1A7",
"K  c #85A5AA",
"L  c #88A7AC",
"P  c #8AA8AE",
"I  c #84ADB4",
"U  c #91AEB3",
"Y  c #9BB5B9",
"T  c #93B8BF",
"R  c #A1B9BE",
"E  c #82B5C0",
"W  c #83BBC5",
"Q  c #8CB9C1",
"!  c #87BEC8",
"~  c #89BFC9",
"^  c #A4BCC0",
"/  c #8DC1CB",
"(  c #94C5CE",
")  c #98C7CF",
"_  c #9CCAD2",
"`  c #ABC5CA",
"'  c #A3CDD4",
"]  c #B0CDD2",
"[  c #A7D0D7",
"{  c #A7D1D8",
"}  c #ACD4DB",
"|  c #B0D0D5",
" . c #B2D4DA",
".. c #B4D9DF",
"X. c #B4DCE4",
"o. c #B9DEE5",
"O. c #A9E2EC",
"+. c #ABE2EC",
"@. c #ACE2EC",
"#. c #ACE3EC",
"$. c #ADE3EC",
"%. c #BAE0E7",
"&. c #BEE1E6",
"*. c #B3E3EB",
"=. c #B6E2E9",
"-. c #B6E3EB",
";. c #B0E3EC",
":. c #B5E3EC",
">. c #B2E4EC",
",. c #B4E4EC",
"<. c #B5E5EC",
"1. c #B7E4EC",
"2. c #B6E5EC",
"3. c #B7E5EC",
"4. c #BCE2E9",
"5. c #BFE5EB",
"6. c #B8E4EC",
"7. c #B8E5EC",
"8. c #BBE4EC",
"9. c #B9E6EC",
"0. c #BAE6EC",
"q. c #BCE6EC",
"w. c #BFE6EC",
"e. c #BFE7EC",
"r. c #C1E3E9",
"t. c #C0E4EA",
"y. c #C0E6EC",
"u. c #C0E7EC",
"i. c #C2E6EC",
"p. c #C2E7EC",
/* pixels */
"O.O.O.O.O.O.O.@.$.$.$.$.>.$.>.,.,.q.,.q.6.6.6.q.q.q.u.p.p.p.u.u.u.u.u.u.q.i.6.6.,.>.;.@.$.O.O.@.O.@.@.$.>.>.>.,.,.,.,.,.",
"O.O.O.O.O.@.@.@.$.$.>.>.,.,.>.q.q.,.q.,.6.q.q.q.q.q.u.p.e.e.u.u.u.u.u.q.5.6.,.,.,.,.$.@.@.O.@.O.@.$.@.>.>.>.,.,.6.,.6.,.",
"O.O.O.@.@.O.$.$.>.>.,.,.,.6.6.,.,.q.,.q.q.6.6.q.q.q.u.u.5.u.u.i.q.u.q.u.,.,.,.,.>.$.$.O.O.@.O.@.$.$.>.@.,.,.,.,.,.,.,.,.",
"O.@.@.@.$.>.@.>.>.,.,.,.6.,.6.q.q.6.q.,.6.q.q.q.u.u.u.u.u.i.i.i.u.u.6.6.,.,.>.$.@.@.@.O.O.@.O.@.$.$.>.>.,.,.6.,.,.,.,.>.",
"O.$.@.@.>.@.>.,.,.,.6.>.q.6.q.,.6.q.q.,.q.q.q.q.q.5.q.5.u.i.i.5.6.q.6.,.>.>.>.$.O.O.@.O.O.O.O.$.;.>.>.,.,.6.,.,.,.,.,.;.",
"$.@.>.;.>.>.,.,.>.q.6.q.>.q.,.q.q.,.6.,.6.u.q.u.u.i.u.5.u.r.5.6.5.6.6.,.>.$.@.@.@.O.O.O.O.@.@.@.;.>.,.,.,.,.6.,.,.>.>.;.",
">.@.>.,.,.,.,.6.q.>.q.,.q.,.q.,.>.>.6.q.q.q.q.q.i.5.u.i.u.q.6.5.6.6.,.>.O.@.@.O.O.O.O.O.@.$.$.;.>.>.,.6.6.,.,.,.>.>.>.>.",
">.>.,.,.,.6.,.6.,.q.,.q.,.q.>.q.6.q.6.q.q.q.q.q.u.q.i.u.u.u.q.,.,.,.>.$.@.@.O.@.O.O.O.@.$.$.>.>.>.,.,.,.,.,.,.,.>.>.O.$.",
">.,.,.6.6.q.,.q.,.q.>.q.6.q.>.6.,.6.6.5.5.q.u.q.i.5.w.w.8.8.8.2.>.>.$.@.O.@.O.O.O.@.O.@.@.O.>.>.,.,.,.,.,.,.,.,.>.,.@.O.",
",.,.,.6.,.q.q.,.q.,.q.,.6.,.,.6.6.6.6.6.q.q.5.5.u.q.w.w.8.8.2.<.>.$.@.O.O.O.O.O.O.O.@.$.>.>.>.,.,.,.,.6.,.,.,.>.@.@.$.@.",
",.6.6.6.q.,.q.,.q.6.,.,.>.>.>.q.q.,.5.q.q.q.u.u.5.i.6.8.2.8.<.#.$.@.O.O.O.O.O.O.O.@.$.$.>.>.,.,.,.,.,.,.,.>.>.>.$.$.O.O.",
"6.6.6.6.>.q.,.q.>.,.,.,.>.q.,.6.6.q.q.q.5.u.u.5.q.u.5.2.2.2.#.#.@.O.O.O.O.O.O.O.@.$.@.@.>.>.,.6.6.,.6.,.,.>.@.$.$.@.@.O.",
"6.6.q.,.q.>.,.,.,.,.,.,.,.,.,.q.q.6.q.u.5.5.6.i.i.5.%.o.2.8.:.O.@.O.O.O.O.O.O.@.@.$.>.>.,.,.,.,.,.,.,.,.>.;.>.@.O.O.O.O.",
",.q.>.q.q.,.,.,.>.,.,.,.,.6.6.6.u.q.u.q.5.5.o. ._ ( / / / ( _ ' } X.=.=.>.>.=.@.$.$.@.>.,.>.,.,.6.,.,.>.;.;.$.$.@.O.O.O.",
"q.q.>.6.>.>.,.>.>.>.,.,.6.,.q.q.6.5.u.u.X._ / H H G F F F F H W W ~ / ( ( _ ' } X.&.6.,.*.=.9.6.,.,.,.>.;.$.$.@.O.O.O.O.",
",.,.,.,.>.>.>.>.>.,.,.,.6.q.6.q.i.u.} _ ! H F F A F M S S A F F S F F F G G G W ~ ( ' X.5.,.>.6.,.,.>.;.@.@.O.O.O.O.O.O.",
",.,.,.>.>.>.>.,.,.,.,.6.6.q.5.u.X.) ! G F S S S A A A A A A A A A A A S A A A S F G H / ( } ,.6.,.>.>.@.@.O.O.O.O.O.O.O.",
",.>.>.;.>.>.>.,.,.,.6.6.q.q.&.' ~ E S F S S S F S S S A A A A A A A A A A A A A A A S F G / ( { o.6.;.@.O.O.O.O.O.O.O.O.",
">.;.>.;.>.>.,.,.,.6.5.6.&.{ ( ~ F F S S S F F F F F F S F A A A A A S A F A A A A A A A F F G W ( } ,.@.@.O.O.O.O.O.O.O.",
";.;.@.>.>.>.,.,.6.6.u.} ( W H F F F M F G G G W G G G G F F S F A S S S F A F F S A S A S A A D G ~ ' X.O.O.O.O.O.O.O.O.",
";.>.>.>.,.,.,.6.6.u.[ ~ G S S S F A S S G H W G S S D D H G D S F S F S A F F F G A S S A S A S S F ! _ =.O.O.O.O.O.O.O.",
"@.>.@.>.,.,.6.6.q.X.( S A A A A A F F F G G D B x g x x v n m C A A S S S A A F G F S F S F S S S S F / { =.O.O.O.O.O.O.",
";.>.>.,.,.,.,.%.u._ G S A A C S F F A S C x g e 4 > : 1 2 7 t d f z b m m m M A A A S S S D S S M A A G / X.$.O.O.O.O.O.",
":.,.,.,.6.6.6.u.o./ S A A S S S F F D C h e : $ + o X o O # - , < 0 q t t y f f z b m m A m m z z b m A W ' ,.O.O.O.O.O.",
",.,.,.6.6.6.u.u.' ~ G S S S S S G I Z x 7 * O               . O @ @ % - - ; < 6 0 w t d d s y w w y f b F ) =.O.O.O.O.O.",
",.,.6.6.6.q.u.} ( H G F S M m N v v a 8 * O                 . .   X X o o o @ @ % - ; < < , ; - - < q f M / =.O.O.O.O.O.",
",.6.6.6.6.u.} / H S S S B z s t e 8 > & O                   .           X X X X X o o @ @ @ + o o % < s m ( =.O.O.O.O.O.",
"6.6.6.6.5.u._ W D S C b s 8 , = $ + + . .                               X       X X X X o X X X o o - t B ' ;.O.O.O.O.@.",
"9.6.6.6.6.5._ H D S B g 7 * O O o     .                                                 X . o X . @ > y Q X.O.@.O.O.O.$.",
"9.5.9.e.u.u.} / W W V i = O .                                                       X   . X X o + & e I  .;.O.@.O.@.@.$.",
"9.9.5.6.6.6.r.X.{ ' T i # X         .       . .     . .                               X . X . X # 3 c  .@.O.O.O.@.@.@.;.",
"5.9.6.5.6.6.6.6.6.%.] a * .                 . . . . . . .       X           X   X   X   . X X # > k | @.@.O.O.@.@.@.>.;.",
"9.6.9.=.6.,.6.,.6.>.o.P : . .               . X X X X X X . . . .     . . . . . . . .   . . X * u ^ >.O.O.@.O.@.$.@.>.>.",
"=.9.6.6.6.6.,.,.,.>.,.R 5 +                 . X o X o . . .   . .   . . . X X X . .   . . . + > P X.O.O.@.O.@.$.$.>.>.>.",
"6.6.6.6.6.,.>.>.>.>.@.X.k = X                 X X . X .   .   .     . . . X X . X . . . . . & u ` O.O.O.O.@.$.@.>.>.,.,.",
"q.6.6.,.,.,.>.>.>.O.$.@.R 9 + .                 . . . . .       . . . . X X X X . . . X O + > l X.O.@.O.@.@.$.>.>.,.,.,.",
",.6.,.,.,.,.>.>.+.+.+.+.o.J = O     .           .         . . . . . . X . X X . .   . . O # 9 Y =.O.O.@.$.@.;.>.>.,.,.,.",
"6.,.,.,.,.,.>.$.+.+.O.O.+.` u # .   .       .   .       . . . . . . . . . . . .     O . O > l | O.O.O.@.$.@.>.,.,.,.,.6.",
",.,.,.,.>.>.$.$.+.+.+.O.+.=.U 9 # . .       .               .   . . . . . . . . . o o O * u Y X.O.@.$.@.>.>.,.,.,.,.6.,.",
",.,.,.,.>.$.$.$.+.+.O.+.+.+.o.U 9 * O X   .   .       . .     . . . . . . X . X o o + # 8 L ..@.@.$.$.@.>.>.,.6.,.,.,.,.",
",.,.,.,.,.#.#.+.+.+.O.O.O.O.O.X.R a 3 * O O X X X . X X X o o X X X X o X O O + # & > u K ] O.@.@.$.>.;.,.,.,.,.,.,.,.,.",
",.,.#.#.+.+.+.O.O.O.O.O.O.O.O.O.>. .Y k u > > = = * = = = = = = = = = = = > > 5 9 p l Y ..+.O.@.@.;.>.,.,.,.,.6.,.,.,.,.",
"#.#.#.#.#.+.+.O.O.O.O.O.O.O.O.O.O.$.=.o.] R U L K K J J K l J J J l l J K P U Y R ] X.=.O.O.$.$.;.;.,.,.,.,.6.,.6.,.>.>.",
",.#.#.+.+.+.O.O.O.O.O.O.O.O.O.O.$.@.@.>.:.:.6.&.%.&.&.=.5.o.o.X.X.X.X.X.=.X.@.=.=.@.@.O.@.$.@.>.;.>.,.6.,.,.,.,.,.,.>.>.",
"+.+.+.+.O.O.O.O.O.O.O.O.O.+.+.#.@.>.;.,.,.,.6.,.,.>.>.>.>.@.$.@.@.@.O.O.O.O.O.O.O.O.O.O.$.$.>.>.,.,.,.,.,.,.,.>.,.>.;.@.",
"+.+.+.O.O.O.O.O.O.O.O.+.O.O.#.#.;.;.>.,.6.,.,.,.,.:.>.;.$.$.@.O.O.O.O.O.O.O.O.O.O.O.@.$.$.$.@.>.,.,.,.,.6.,.,.>.>.>.>.@.",
"O.O.O.O.O.O.O.O.O.O.O.+.+.+.#.#.;.>.,.,.,.,.,.,.,.>.;.;.$.$.O.@.O.O.O.O.O.O.O.O.@.@.@.$.;.>.>.,.,.6.,.,.,.,.>.>.@.>.@.@.",
"O.O.O.O.O.O.O.O.O.O.O.+.+.#.#.,.,.,.,.,.6.,.,.,.,.>.>.@.$.@.O.O.O.O.O.O.O.O.O.O.O.@.@.;.;.>.>.,.,.,.6.,.,.,.>.>.>.$.$.O.",
"O.O.O.O.O.O.O.O.O.O.@.@.$.$.;.>.>.,.,.6.,.,.,.,.>.>.@.$.O.O.O.O.O.O.O.O.O.O.@.@.$.$.>.;.>.,.,.6.,.,.,.,.,.,.;.;.$.$.O.O.",
"O.O.O.O.O.O.O.O.O.O.O.$.$.$.;.,.,.,.,.,.,.,.,.,.@.>.$.@.O.@.O.O.O.O.O.O.O.O.O.@.@.@.>.>.>.,.,.,.6.,.,.,.,.;.>.@.$.@.O.O.",
"O.O.O.O.O.O.O.O.@.O.@.$.>.;.>.,.,.6.,.6.,.,.,.;.$.$.@.O.O.O.O.O.O.O.O.O.O.O.@.$.;.;.>.,.,.,.,.,.,.,.,.,.>.>.@.@.@.O.O.O.",
"O.O.O.O.O.O.+.+.O.O.$.$.>.>.>.,.,.,.,.,.,.,.;.;.$.$.@.@.O.O.O.O.O.O.O.O.@.@.$.$.;.>.,.,.,.,.,.6.,.,.,.;.O.$.$.O.@.O.O.O.",
"O.O.O.O.O.O.O.O.O.$.$.@.>.,.,.6.,.,.,.,.,.>.;.@.@.@.O.O.O.O.O.O.O.O.O.@.@.$.$.>.>.,.,.,.,.6.,.,.,.,.>.$.@.$.O.O.O.O.O.O.",
"O.O.O.O.O.O.O.+.@.@.>.>.,.,.,.,.6.,.,.>.>.;.$.@.@.O.O.O.O.O.O.O.O.@.O.O.$.$.>.>.,.,.,.,.,.,.,.,.>.;.>.$.$.@.@.O.O.O.O.O.",
"O.O.O.O.O.+.O.+.@.>.>.,.,.,.,.,.,.,.,.>.>.>.$.@.@.O.O.O.O.O.O.O.O.O.@.$.@.;.>.>.,.6.6.,.,.6.>.>.;.;.$.$.@.@.O.O.O.O.O.O.",
"O.O.O.O.+.+.#.#.;.;.>.,.,.,.6.,.,.,.,.>.O.$.@.O.O.O.O.O.O.O.O.O.O.@.@.@.>.>.>.>.,.,.,.,.,.,.>.>.>.@.$.@.O.O.O.O.O.O.O.O.",
"O.O.O.O.O.@.$.@.>.>.>.,.,.,.6.,.,.,.>.@.$.$.@.O.O.O.O.O.O.O.O.O.@.$.$.>.>.,.,.,.6.,.6.,.,.>.>.>.@.$.O.O.O.O.O.O.O.O.O.O.",
"O.O.O.O.O.$.$.>.>.>.,.,.,.6.,.,.,.,.;.>.@.@.O.O.O.O.O.O.O.O.O.@.$.$.;.>.,.,.,.,.,.,.,.,.,.>.>.@.@.@.O.@.O.O.O.O.O.O.O.O.",
"O.O.+.+.@.@.#.,.,.,.,.,.,.,.,.,.>.@.@.@.@.O.O.O.O.O.O.O.O.@.O.@.>.@.;.,.,.,.,.,.,.,.,.,.>.@.>.@.@.O.O.O.O.O.O.O.O.O.O.O.",
"O.O.O.+.@.*.#.,.,.,.6.,.,.,.,.>.>.,.$.@.O.O.O.O.O.O.O.O.O.@.@.>.@.:.,.,.,.6.6.,.,.,.,.>.>.$.@.@.O.@.O.O.O.O.O.O.O.O.O.O."
};
