/* XPM */
static char *_0246c1d528c4570c7b7e1d7d2207c218nE8WOSggmhCbPal[] = {
/* columns rows colors chars-per-pixel */
"60 60 170 2 ",
"   c #1C1717",
".  c #333333",
"X  c #37393A",
"o  c #3A3B3B",
"O  c #5E1116",
"+  c #770F15",
"@  c #671015",
"#  c #5E282B",
"$  c #412F30",
"%  c #782126",
"&  c #3B3F40",
"*  c #3E4344",
"=  c #444646",
"-  c #444748",
";  c #454C4D",
":  c #4E4A4B",
">  c #4B5557",
",  c #505B5C",
"<  c #57676A",
"1  c #5C6F72",
"2  c #5F7679",
"3  c #636363",
"4  c #6D6D6D",
"5  c #716F6F",
"6  c #61767A",
"7  c #637A7E",
"8  c #7C7C7C",
"9  c #810E15",
"0  c #8B0E15",
"q  c #930D15",
"w  c #9A0C15",
"e  c #A30B14",
"r  c #AD0A14",
"t  c #B70A14",
"y  c #BE111B",
"u  c #8B1E24",
"i  c #8F272D",
"p  c #B6262E",
"a  c #C40914",
"s  c #CE0A15",
"d  c #CB0E19",
"f  c #D40713",
"g  c #DC0713",
"h  c #D40B16",
"j  c #DB0916",
"k  c #D10C18",
"l  c #C4111C",
"z  c #CA101B",
"x  c #D1121C",
"c  c #D9111D",
"v  c #E30613",
"b  c #E30916",
"n  c #E30D1A",
"m  c #E3121E",
"M  c #C51A24",
"N  c #CB1A24",
"B  c #C91F29",
"V  c #D31B27",
"C  c #DB1925",
"Z  c #E31521",
"A  c #CD252E",
"S  c #D6252F",
"D  c #D92834",
"F  c #D5333C",
"G  c #E6222E",
"H  c #E72C37",
"J  c #E1313C",
"K  c #CD3640",
"L  c #D83844",
"P  c #E93D47",
"I  c #D5434D",
"U  c #D8545B",
"Y  c #E74952",
"T  c #EC535C",
"R  c #D65D65",
"E  c #CC717A",
"W  c #D2717A",
"Q  c #E8646C",
"!  c #ED7179",
"~  c #667E82",
"^  c #F07B82",
"/  c #6C8488",
"(  c #6E8A8F",
")  c #6F8C90",
"_  c #758D91",
"`  c #739196",
"'  c #76959B",
"]  c #79959A",
"[  c #7B999E",
"{  c #7C9DA3",
"}  c #7EA1A7",
"|  c #7FA2A9",
" . c gray51",
".. c #999999",
"X. c #BE929E",
"o. c #819EA3",
"O. c #BB9EA9",
"+. c #82A5AB",
"@. c #86A4A9",
"#. c #85A8AE",
"$. c #85ACB3",
"%. c #8AAEB3",
"&. c #87B0B7",
"*. c #8AB1B7",
"=. c #8CB4BB",
"-. c #91B5BB",
";. c #95B9BF",
":. c #A2A2A2",
">. c #ACACAC",
",. c #B9A5B0",
"<. c #B8B7B9",
"1. c #DF8187",
"2. c #C18B96",
"3. c #F18087",
"4. c #F1878D",
"5. c #ED989D",
"6. c #F3989D",
"7. c #C598A0",
"8. c #F29FA4",
"9. c #C7ACB4",
"0. c #F4A0A5",
"q. c #F4AEB2",
"w. c #8FBBC2",
"e. c #93BDC4",
"r. c #98BCC3",
"t. c #B3BCC7",
"y. c #EEBFC2",
"u. c #F5BEC1",
"i. c #96C0C7",
"p. c #9BC1C7",
"a. c #95C2CB",
"s. c #9BC5CC",
"d. c #9CCCD4",
"f. c #9ED2DB",
"g. c #A0C8CE",
"h. c #A2CDD4",
"j. c #B8CFD4",
"k. c #A3D4DC",
"l. c #A9D6DE",
"z. c #ACD8DF",
"x. c #A1D6E0",
"c. c #ADD7E1",
"v. c #A5DAE3",
"b. c #ACDCE4",
"n. c #A6DEE8",
"m. c #AADFE9",
"M. c #B1DEE6",
"N. c #ABE2EC",
"B. c #B4E4EC",
"V. c #BBE5EC",
"C. c gray79",
"Z. c #D2D2D2",
"A. c #DEDEDE",
"S. c #F7C7CA",
"D. c #FACFD2",
"F. c #FBD5D7",
"G. c #C1E6EC",
"H. c #D1E0E6",
"J. c #C9ECF2",
"K. c #D5EFF3",
"L. c #D8F2F6",
"P. c #DCF1F5",
"I. c #E4E4E4",
"U. c #EAEAEA",
"Y. c #FBE5E6",
"T. c #E7F7FA",
"R. c #F1F2F2",
"E. c #FDF4F5",
"W. c #F4FAFC",
"Q. c #FEFEFE",
/* pixels */
"N.N.N.N.N.N.N.N.N.B.N.N.B.B.B.V.B.V.B.V.V.V.V.V.V.V.G.G.G.G.G.G.G.G.G.G.V.V.B.B.B.B.B.N.N.N.N.N.N.N.N.B.N.B.B.B.B.B.B.V.",
"N.N.N.N.N.N.N.N.N.N.B.B.B.B.B.B.V.B.B.V.V.V.V.V.V.V.V.G.G.G.G.G.V.V.G.V.V.V.B.B.B.B.N.N.N.N.N.N.N.N.N.B.B.B.B.B.B.B.B.B.",
"N.N.N.N.N.N.N.N.B.B.B.B.B.B.B.B.V.B.V.B.V.V.V.V.V.V.J.G.G.G.G.G.V.J.V.V.V.V.B.B.B.N.N.N.N.N.N.N.N.N.B.N.B.B.B.B.B.B.B.B.",
"N.N.N.N.N.N.N.N.B.B.B.B.B.B.V.V.V.V.V.V.V.V.V.V.J.V.V.V.G.G.G.G.V.J.V.V.B.B.B.B.N.N.N.N.N.N.N.N.N.N.B.B.B.V.B.B.B.B.B.B.",
"N.N.N.B.B.N.B.B.B.V.B.B.B.V.V.B.B.V.B.V.V.V.V.V.G.G.G.G.G.G.G.V.V.V.V.B.N.N.N.N.N.N.N.N.N.N.N.N.B.N.B.B.B.B.B.V.B.B.B.B.",
"B.N.N.N.B.B.B.B.B.B.V.V.V.B.V.V.B.V.V.V.V.V.V.V.V.V.G.G.G.G.V.G.V.V.B.B.B.N.N.N.N.N.N.N.N.N.N.N.N.B.B.B.B.B.B.B.B.B.B.N.",
"N.B.B.B.B.B.B.B.B.V.V.B.V.B.B.V.V.V.B.B.V.V.V.V.G.G.G.G.G.V.V.V.V.B.B.B.N.N.N.N.N.N.N.N.N.N.N.N.B.B.B.V.B.B.B.B.B.B.N.N.",
"B.B.B.B.B.V.B.V.V.B.V.V.B.V.V.V.B.V.V.V.V.V.J.V.G.G.V.G.G.G.V.V.B.B.B.N.N.N.N.N.N.N.N.N.N.N.N.B.B.B.B.B.B.V.B.B.B.N.N.N.",
"B.B.B.B.B.V.V.B.V.V.B.V.V.B.B.B.B.V.V.V.V.V.V.G.V.G.G.V.G.V.V.V.N.N.N.N.N.N.N.N.N.N.N.N.N.B.B.B.B.B.B.B.B.B.B.B.N.N.B.N.",
"B.B.B.V.V.B.B.V.V.B.V.B.B.V.V.B.B.V.V.V.V.G.G.G.V.G.G.V.V.V.B.B.N.N.N.N.N.N.N.N.N.N.N.B.N.B.B.B.B.B.B.V.B.B.B.B.B.N.N.N.",
"V.B.V.B.B.V.V.B.V.V.B.B.B.B.B.B.V.V.V.V.V.G.G.V.G.V.V.V.V.B.B.B.N.N.n.N.N.N.N.N.N.N.N.N.B.B.B.B.B.B.B.B.B.B.B.N.N.N.N.N.",
"B.V.B.V.V.V.B.V.B.B.B.B.B.V.B.V.B.V.V.G.V.G.G.V.V.G.V.V.B.B.B.N.N.N.N.N.N.N.N.N.N.N.N.B.N.B.B.B.B.V.B.B.B.B.B.B.N.N.N.N.",
"V.B.B.V.B.V.B.B.B.B.B.B.B.B.B.V.V.V.V.G.G.G.V.G.V.V.V.B.B.B.N.N.N.N.N.N.N.N.N.N.N.N.B.B.B.B.B.B.B.V.B.B.B.B.B.N.N.N.N.N.",
"V.V.V.B.B.B.B.B.B.B.B.B.B.B.B.V.V.G.V.G.V.G.G.V.V.B.B.B.B.N.N.N.N.n.N.N.N.N.N.N.N.N.N.B.B.B.V.B.B.B.B.B.B.N.N.N.N.N.N.N.",
"B.B.B.V.B.B.B.B.B.B.B.B.V.V.V.V.V.G.G.V.V.G.V.V.V.B.B.B.N.N.N.N.N.N.N.N.N.N.N.N.N.N.B.B.B.B.B.B.B.B.B.N.N.N.N.N.N.N.N.N.",
"B.V.B.B.B.B.B.B.B.B.B.B.B.V.V.V.V.G.V.G.V.V.V.V.V.B.N.N.N.N.N.N.N.N.N.N.N.N.N.N.B.B.B.B.B.V.B.B.B.B.B.B.B.N.N.N.N.N.N.N.",
"B.B.B.B.B.N.B.B.B.B.B.V.V.V.V.V.G.G.V.G.V.V.B.B.B.B.N.N.N.N.N.N.N.N.N.N.N.N.N.B.B.B.B.B.B.B.B.B.B.B.N.N.N.N.N.N.N.n.N.N.",
"B.B.B.N.B.B.B.B.B.B.V.V.V.V.G.G.G.V.V.V.V.V.B.B.B.N.N.N.N.N.N.N.N.N.N.N.N.N.N.B.N.B.V.B.B.V.V.B.N.B.N.N.N.N.n.N.n.N.N.N.",
"N.B.B.B.N.B.B.B.B.B.V.V.V.V.G.V.V.V.V.V.V.V.J.K.P.T.W.Q.Q.Q.Q.W.W.T.T.L.J.V.B.N.B.B.B.B.B.B.B.B.B.N.N.N.N.N.N.N.N.N.n.N.",
"N.B.N.B.B.B.B.B.B.V.V.V.V.G.V.G.V.V.J.T.W.Q.Q.Q.Q.Q.Q.Q.Q.Q.Q.Q.Q.Q.Q.Q.Q.Q.W.T.J.V.B.B.B.B.B.N.N.B.N.N.N.N.N.N.N.N.N.n.",
"B.B.N.B.B.B.B.B.V.V.V.V.G.V.V.G.K.W.Q.Q.Q.Q.Q.Q.Q.Q.Q.Q.Q.Q.Q.Q.Q.Q.Q.Q.Q.Q.Q.Q.Q.Q.L.V.B.B.B.B.N.N.N.N.N.N.N.n.N.N.n.N.",
"N.B.B.B.B.B.V.V.V.V.V.V.G.V.H.y.6.! T P G m m v v v Z G H Y Q 3.0.D.Q.Q.Q.Q.Q.Q.Q.Q.Q.Q.P.B.B.N.B.N.N.N.n.n.N.N.N.n.N.N.",
"B.B.N.B.B.V.V.V.V.V.G.9.W J v v v v v v b b b v v v v v v v v v v v n P ^ S.Q.Q.Q.Q.Q.Q.Q.R.G.N.N.b.t.,.O.t.n.N.N.N.N.N.",
"B.B.B.B.B.V.V.G.M.E N k v v v v v v g a t r 0 + a v v v v v v v v v v v v v Z 4.E.Q.Q.Q.Q.Q.Q.j.t.O.L Z x R d.n.N.N.n.N.",
"B.B.B.B.V.V.V.7.l l l d f g v v v v f e q + @ 0 h v v v v v v v v v v v v v v v n ^ Q.Q.E.F.S.8.K m b b b C 7.c.N.N.N.N.",
"B.B.V.B.V.V.9.j g v f q O t g v v v g f t + e f v v v v v v v v v v v v v v v v v v P q.^ T H v v v b b k V X.n.N.N.n.N.",
"B.B.V.V.V.V.D v v v s @   + f v v v v v v 0 t v v v v v v v v v v v v v v v v v v v v G m b v v v v g j l V O.n.N.N.N.N.",
"V.V.B.V.V.V.n v v v g e @ r v v v v v f v w q f v v v v v v v v v v v v v v v v v v b b m h h g v b v j l V ,.m.N.N.N.N.",
"M.B.V.V.V.V.R v v v v f f g v v v v v w 9 q 9 a v v v v v v v v v v v v v v v h d d h C M l l l j b v g d S ,.n.N.N.N.N.",
"V.V.V.V.V.V.M.B g l d g v v v v v v v g t w e f v v v v v v v v v v v v v g d l d j g L T N y l l k v b c L ,.m.N.N.N.N.",
"V.V.V.V.V.V.G.= u d l l l l d d g v v v v g g v v v v v v v v v v v v v d l M l z C q.D.S.5.Q K M l h b N L t.b.N.N.N.N.",
"V.V.V.V.V.V.V.. . $ i V l l y l h v v v v v v v g b v v g g j j s d l l l l k H 6.E.Q.Q.Q.Q.E.F.8.p y d M L t.m.N.N.B.B.",
"V.V.V.V.B.V.B.& . . . 5 u.! J d z k h h j h h s l l s d d z l l l y l l S I q.Q.Q.Q.Q.Q.Q.Q.Q.Q.<.$ # % i 2.z.N.B.N.B.B.",
"V.B.V.B.V.B.B., . . . . ~ E.Q.Q.D.U B M M N N l l z k x C V N A F I R 1.y.E.Q.Q.Q.Q.Q.Q.Q.Q.Q.C.o . . . : l.N.N.N.B.B.B.",
"V.V.V.B.B.V.M.` . . . . . 3 U.Q.Q.Q.Q.Y.S.Q.Q.Q.Q.Q.Q.Q.Q.Q.Q.Q.Q.Q.Q.Q.Q.Q.Q.Q.Q.Q.Q.Q.Q.Q.>.o . . . . 1 N.B.N.N.B.B.B.",
"V.B.V.B.B.V.B.v.& . . . . . & :.W.Q.Q.Q.Q.Q.Q.Q.Q.Q.Q.Q.Q.Q.Q.Q.Q.Q.Q.Q.Q.Q.Q.Q.Q.Q.Q.Q.I.5 . X . . . . ;.N.N.B.B.B.B.B.",
"B.B.V.B.B.B.B.N.[ . . . . . . . * ..U.Q.Q.Q.Q.Q.Q.Q.Q.Q.Q.Q.Q.Q.Q.Q.Q.Q.Q.Q.Q.Q.Q.Q.A. .X . . . . . . < N.N.N.N.B.B.B.B.",
"V.B.B.B.B.B.B.B.m.1 . . . . . . . . . 4 >.I.Q.Q.Q.Q.Q.Q.Q.Q.Q.Q.Q.Q.Q.Q.Q.Q.Q.A.:., . . . . . . . . - f.N.B.B.B.B.B.B.V.",
"B.B.B.B.B.N.N.M.n.f.< . . . . . . . . . . . : 8 ..<.Z.I.R.W.Q.Q.R.I.Z.<...5 = . . . . . . . . . . * s.N.B.B.B.B.V.B.B.B.",
"B.B.B.B.N.B.N.m.x.f.s.6 . . . . . . . . . . . . X . X . X . . . X . . . X . . . . . . . . . . . ; i.N.N.B.B.B.B.B.B.B.B.",
"B.B.B.B.N.N.N.n.v.d.a.w.' * X . . . . . . . . . . . . . . . . . . . . . . . . . . . . . . X . < i.l.N.B.B.B.B.V.B.B.B.N.",
"B.N.B.N.N.N.N.n.x.f.a.w.w.| 2 & . . . . . . . . . . . . . . . . . . . . . . . . . . . . . ; ) %.i.k.b.B.B.B.B.B.B.B.B.N.",
"B.N.N.N.N.N.N.n.n.f.a.e.w.&.| | 7 ; . . . . . . . . . . . . . . . . . . . . . . . . X , ( | | %.i.h.b.B.V.B.B.B.V.B.N.N.",
"N.N.N.N.N.N.N.n.n.k.d.e.w.w.&.w.%.#.] < ; . . . . . . . . . . . . . . . . . . X > 7 { { | | +.=.p.l.N.B.B.B.B.V.B.B.N.N.",
"N.N.N.N.N.N.N.N.n.n.f.a.w.w.w.=.=.%.%.@.o._ 6 < > ; & o X . . . . X * * > < ~ ' } | | | +.#.*.e.k.b.B.B.V.B.B.B.B.B.B.N.",
"N.N.N.N.N.n.N.N.N.n.v.f.a.a.w.w.;.-.-.%.@.o.] _ ) ) ) / / ~ 2 2 2 ~ ~ / ( ` ' { | | $.$.%.=.i.h.N.N.B.B.B.B.B.B.B.N.B.N.",
"N.N.N.N.N.n.N.N.N.n.n.v.f.d.a.e.r.r.;.-.%.%.@.@.@.o.{ [ | } ' ' ' { ' { } | | $.&.*.=.;.i.s.k.z.B.B.B.B.B.B.B.N.B.B.N.N.",
"N.N.N.N.N.N.N.N.N.N.m.n.v.k.k.d.g.p.g.g.;.;.-.-.-.-.*.*.| =.| | | | =.| &.=.w.w.w.i.s.h.k.z.b.B.B.B.V.B.B.B.B.B.N.N.N.N.",
"N.N.N.n.N.N.N.n.N.N.N.N.N.N.N.N.k.k.h.h.g.g.g.g.a.a.a.a.a.a.a.a.d.a.a.a.a.a.d.d.f.k.l.z.b.B.B.B.B.B.B.B.B.B.B.N.N.N.N.N.",
"N.N.N.N.N.N.N.N.N.N.N.N.N.N.N.N.M.z.z.z.z.z.z.l.x.x.x.x.f.f.f.f.f.x.x.f.f.x.x.n.m.N.N.B.B.B.B.B.V.B.B.B.B.B.B.N.N.N.N.N.",
"N.N.N.N.N.N.N.N.N.N.N.N.N.B.B.B.B.B.M.M.b.B.M.b.N.n.n.n.N.n.n.n.n.n.n.n.n.N.n.N.B.N.B.B.B.B.B.B.B.B.B.B.B.B.N.N.N.N.n.N.",
"N.N.N.N.n.n.N.N.N.N.N.N.N.B.B.B.B.B.B.B.B.B.B.B.N.N.N.N.N.N.n.N.n.N.N.N.N.N.N.N.N.B.B.B.B.B.V.B.B.B.B.B.N.N.N.N.n.N.N.N.",
"n.N.N.N.N.N.N.N.N.N.B.N.B.B.B.B.B.B.B.B.B.N.B.N.N.N.N.N.N.N.n.N.N.N.N.N.N.N.N.N.B.B.B.B.V.B.B.B.B.B.B.B.N.N.N.N.N.N.N.n.",
"N.n.N.N.N.N.N.N.N.N.B.B.B.B.V.B.B.B.B.B.B.B.N.N.N.N.N.n.N.N.N.N.N.N.N.N.N.N.N.B.B.B.B.B.B.B.B.B.B.B.N.N.N.N.N.N.N.N.N.N.",
"N.n.N.N.n.N.N.N.N.N.B.B.B.B.B.B.B.B.B.B.N.N.N.N.N.N.N.N.N.n.N.N.N.N.N.N.N.N.B.B.B.V.B.B.B.B.B.B.N.B.N.N.N.N.N.N.N.N.n.N.",
"N.N.n.N.N.N.N.N.B.B.B.B.B.B.V.B.V.B.B.B.B.N.B.N.N.N.N.N.n.N.N.n.N.N.B.N.B.B.B.B.B.B.B.V.B.B.B.B.B.N.N.N.N.N.N.N.N.n.N.N.",
"N.n.N.N.N.N.N.N.N.B.B.B.B.V.B.B.B.B.N.B.N.N.N.N.N.N.N.N.N.N.N.N.N.N.N.B.B.B.B.B.V.B.B.V.B.B.B.N.N.N.N.N.N.N.n.N.N.N.N.n.",
"N.N.n.N.N.N.N.N.N.B.B.B.B.B.B.B.B.B.B.N.N.N.N.N.N.N.N.N.N.N.N.N.N.N.N.B.B.B.B.B.B.B.B.B.B.B.B.N.N.N.N.N.n.N.N.N.N.n.N.N.",
"N.n.N.N.N.N.N.N.B.B.B.B.B.B.B.B.B.B.N.N.N.N.N.N.N.n.n.N.N.N.N.N.N.N.B.B.B.B.B.B.B.B.B.B.B.N.B.N.N.N.N.N.n.N.N.N.N.N.N.N.",
"N.N.N.N.N.N.N.N.B.B.B.B.B.B.B.B.N.B.N.N.N.N.N.N.N.N.N.n.N.N.N.N.B.B.B.B.B.V.B.B.B.B.B.B.B.N.N.N.N.N.N.N.N.N.N.N.N.N.n.N."
};
