/* XPM */
static char *a4f3d38db0be4c94c32f212a73ca9eddDWX1dn7uk4wbGnHt[] = {
/* columns rows colors chars-per-pixel */
"60 60 191 2 ",
"   c #709FAF",
".  c #729EB1",
"X  c #60A5AA",
"o  c #67A8AF",
"O  c #6DABB2",
"+  c #75A3B2",
"@  c #78A7B4",
"#  c #7CA7B8",
"$  c #7EABBA",
"%  c #71B3B8",
"&  c #7DB3BA",
"*  c #7CBBC0",
"=  c #85ABB2",
"-  c #8BAEB4",
";  c #82A6BC",
":  c #84ACBC",
">  c #8AAFBE",
",  c #8DB1B7",
"<  c #85B3BE",
"1  c #8BB4BB",
"2  c #87BABD",
"3  c #8ABABE",
"4  c #92B5BB",
"5  c #92B8BE",
"6  c #8DAFC1",
"7  c #8BB4C1",
"8  c #85BCC0",
"9  c #8DBBC2",
"0  c #94B4C4",
"q  c #93BCC4",
"w  c #99BDC6",
"e  c #96BFC8",
"r  c #9DBDCA",
"t  c #A1BFCC",
"y  c #8FC1C5",
"u  c #8DC7CC",
"i  c #95C2C6",
"p  c #99C1C7",
"a  c #94C2CA",
"s  c #9BC4CA",
"d  c #9CCBCC",
"f  c #9ED0CF",
"g  c #9CCBD2",
"h  c #9DCFD8",
"j  c #9FD2DB",
"k  c #A1C5CE",
"l  c #ABC5CF",
"z  c #A3CACE",
"x  c #A6C7D1",
"c  c #A4CCD3",
"v  c #ABCCD3",
"b  c #A6CFD8",
"n  c #B3CED5",
"m  c #BACED7",
"M  c #A4D2D4",
"N  c #ADD3D5",
"B  c #A7DAD7",
"V  c #A8DAD7",
"C  c #A5D3DB",
"Z  c #AAD5DC",
"A  c #ACD9DC",
"S  c #B3D3D6",
"D  c #B4D4D9",
"F  c #BBD5DA",
"G  c #B4DDDD",
"H  c #BBDBDD",
"J  c #B4E0DE",
"K  c #B9E1DF",
"L  c #A1D6E0",
"P  c #A9D7E0",
"I  c #A4DBE4",
"U  c #ACDCE3",
"Y  c #A7DFE9",
"T  c #A9DFE9",
"R  c #B2D5E1",
"E  c #B2DEE4",
"W  c #B9DFE2",
"Q  c #AEE0E6",
"!  c #ABE2EC",
"~  c #B5E2E3",
"^  c #BAE3E2",
"/  c #B4E4EC",
"(  c #BAE5EC",
")  c #C2D6DD",
"_  c #C3DADE",
"`  c #CADBDF",
"'  c #C4DDE1",
"]  c #CADDE3",
"[  c #C3E4E4",
"{  c #CBE3E5",
"}  c #C5E8E5",
"|  c #CAE9E6",
" . c #C2E6EB",
".. c #CCE6EA",
"X. c #C6E9EA",
"o. c #CEEBEB",
"O. c #CEE9E9",
"+. c #C9E9ED",
"@. c #CBEAED",
"#. c #CDEBED",
"$. c #CFEBEC",
"%. c #CFECEE",
"&. c #CCEBEB",
"*. c #D2E4E7",
"=. c #D4E6E9",
"-. c #D9E7EA",
";. c #D3E9EA",
":. c #D1EBEA",
">. c #D3EBEA",
",. c #D3E8E8",
"<. c #D5EBEB",
"1. c #D4EAE9",
"2. c #D1EDEB",
"3. c #D3EDED",
"4. c #D0ECEF",
"5. c #D3EDED",
"6. c #D9EDED",
"7. c #DBEDED",
"8. c #D9EEED",
"9. c #DAEEED",
"0. c #DAEFEE",
"q. c #DFEFEF",
"w. c #DEEDEC",
"e. c #DAECED",
"r. c #D6F0EE",
"t. c #DAF0EF",
"y. c #DAF1EF",
"u. c #D5EEF0",
"i. c #DAEFF1",
"p. c #DFF1F0",
"a. c #DDF2F2",
"s. c #E1EDEE",
"d. c #E0F0EF",
"f. c #E0E7F0",
"g. c #E4EEF1",
"h. c #E0F0F1",
"j. c #E3F2F2",
"k. c #E4F1F1",
"l. c #E5F3F2",
"z. c #E7F3F3",
"x. c #E6F3F2",
"c. c #E1F2F4",
"v. c #E3F3F5",
"b. c #E7F5F4",
"n. c #E7F5F6",
"m. c #E4F4F4",
"M. c #E3F3F3",
"N. c #E8F3F3",
"B. c #EBF4F3",
"V. c #EAF5F4",
"C. c #EBF5F5",
"Z. c #EBF6F5",
"A. c #EBF6F6",
"S. c #E9F5F5",
"D. c #EDF6F5",
"F. c #ECF7F6",
"G. c #EAF5F5",
"H. c #EFF8F7",
"J. c #EDF8F7",
"K. c #EDF7F8",
"L. c #EDF7F8",
"P. c #EEF8F8",
"I. c #F0F6F7",
"U. c #F0F8F7",
"Y. c #F0F8F7",
"T. c #F1F7F8",
"R. c #F1F8F8",
"E. c #F1F9F8",
"W. c #F3F9F9",
"Q. c #F4FAFA",
"!. c #F5FBFB",
"~. c #F5FAFA",
"^. c #F6FCFC",
"/. c #F4FAFA",
"(. c #F9FBFB",
"). c #F8FCFB",
"_. c #F9FBFC",
"`. c #F9FCFC",
"'. c #FAFDFC",
"]. c #FAFDFD",
"[. c #FBFDFD",
"{. c #FAFCFD",
"}. c #FCFDFD",
"|. c #FDFDFE",
" X c #FDFEFE",
".X c #FEFEFE",
"XX c #FEFFFE",
"oX c #FFFFFE",
"OX c white",
"+X c #FFFFFF",
"@X c #FDFEFE",
/* pixels */
"! ! ! ! ! ! Y Y ! ! ! ! / / / / ( ( ( ( ( ( ( ( ( ( (  . .+.( +. . . . .( ( ( / / ! ! ! ! ! ! ! ! ! ! ! / ! / / / / / / ",
"! ! ! ! ! ! ! ! ! / / / / / / / ( ( / / ( ( ( ( (  . . . . .+.(  . .( ( ( ( / / / / ! ! ! ! ! ! ! ! / ! / / / / ( / ( / ",
"! ! ! ! ! ! ! ! / / / / / / ( ( / ( / ( ( ( ( ( ( (  . .+.( ( +. .( ( / ( ( / / / / ! ! ! ! ! ! ! ! / / / / / / / / / / ",
"! ! ! ! ! / ! ! / / / / / / ( / ( ( ( ( ( ( ( (  . . .( ( +.( (  .( ( ( ( ( / / ! ! ! ! ! ! ! ! ! / ! / / / / / / / / / ",
"! ! / ! / / ! / / / / / ( / ( / ( ( ( ( ( / ~ ~ ^ ( (  . . . .( ( ( ( ( / / ! ! ! ! ! ! ! ! ! / / ! / / / / / / ( / / / ",
"! ! ! / / / / / ( / / ( / ( ( ( / ( ( ( ! / | :.:.:.{  .( (  .( ( ( ( / / ! ! ! ! ! ! ! ! ! ! ! ! / / / / ( / ( / / / ! ",
"/ / / / / / / / ( ( / ( / ( ( ( ( ( ( / %.r.r.1.1.q.i.x.i.4.( ( ( ( ( ! ! ! ! ! ! ! ! ! ! ! ! ! / ( / ( / ( / / / / ! ! ",
"! / / / / ( / ( ( ( ( ( / ( ( ( / ( / n.x.M.d.d.q.q.6.*.i.A.Q.n.@./ / / ! ! ! ! ! ! ! ! ! ! ! ! / / / / / / / / ! ! ! ! ",
"/ / / / / ( ( ( ( ( / ( ( / ( / ~ 3.V.V.C.V.N.N.s.:.[ G H w.Y.).OX!.n.+./ Q ! ! ! ! ! ! ! / ! / / / ( / / / / / / / ! ! ",
"/ / / ( ( / ( / / ( ( / ( ( / @.~.OX(.R.C.x.x.q.<.{ G M f K d.Y.~.).OXOX~.%.Q ! ! ! ! ! ! ! / / / / / / / / / / ! ! ! ! ",
"/ / ( ( ( ( ( / ( ( / / / ^ b.OXOX X~.V.g.6.1.:.[ A g d M G G :.Y.oX).oXOXOXb.( ! ! ! / / / ( / ( / / ( / / / / ! ! ! ! ",
"( ( ( ( ( ( ( ( / / / ( @. XOX X X XR.g.[ ^ ^ G M d d f D G G G [ C.).).OXOXOX X4./ ! ! / / / / / / / / / / / ! ! ! ! ! ",
"( ( / ( / ( / / / / / c.OXOX XOX XR.y.^ V V M d d f f N J G G K G K 9.~. XOX XOXOXc./ / / / / ( / / ( / / / / ! ! ! ! ! ",
"( / / / / / / / / ( A.OXOXOXOX XV.o.^ J J J B g M M M G J J G G G G G | V.{. XOXOXOXV./ / / / / ( / / / / ! ! ! ! ! ! ! ",
"/ ( / ( / / / / ( ^.OXOXOXOXY.y.[ K J J K K J B M M G H K G G W G G J G [ x. XOXOXOXOXb.( / / / / / / ! ! ! ! ! ! ! ! ! ",
"( / / / / / / 4. XOXOXOX).x.| ^ J ^ ~ ~ ^ J J B M V ^ G G G K ^ [ [ K { :.c.~.OXOXOXOXOXc.( / / / ! ! +.@.! ! ! ! ! ! ! ",
"/ ( / / ! ( 3. XoX}.}.E.a.} ^ ^ ^ ^ ^ ^ ^ J J V V J ~ K [ O.6.y.q.d.y.y.C. X(.OXOXOXOXOXa.U ~ ( @.c.~.OXOX^ ! ! ! ! Y ! ",
"/ / ! / / +.OX XoX}.E.y.^ K ^ ^ K J ^ J K K G V V J [ 5.q.a.a.x.c.x.x.).OXOX X X~.!.OX Xa.^.OXOXOXOXOX XOXb.Q ! ! Y ! ! ",
"! / / ! / R.OX X'.Y.r.^ ^ ^ K K ^ J J ^ ^ [ K S G { :.6.y.a.a.M.d.c.{.OXOXOX|.OXQ.b.H.!.a.OXOXOX XOXOXOXOX X( / ! ! ! ! ",
"/ ! / / b.OX X XoXd.} ^ ^ ^ ^ ^ J J ^ ^ K [ [ [ *.:...1.y.6.y.M.c.R.OXOXOX|.OX~.b.M.a.F.6. XOX X X X XOX XOXb.Q ! Y ! ! ",
"/ ! ( a.OX). X X~.2.[ K ^ ^ K K ^ J G G [ { O.....O.5.6.a.6.6.x.!.OXOXOXOXOX Xb.a.a.a.m.r. X^.Q. XOX XOXOXOXR.Q ! ! ! Y ",
"! / (  XoXOX X).~.r.} K K ^ ^ K J A G ^ [ ' ..u...6.6.y.x.c.M. XOXOXOXOXOX).J.a.m.a.a.F.u.^.Q.Q. XOXOXOXOXOXb.I ! ! ! ! ",
"/ ! / F.oX).oX}.'.r.| K ^ K ^ ^ J W ^ [ | O.6.a.6.a.a.y.M.V.!.!.R.K.R.K.V.M.y.a.a.m.Q. X%.Q.Q. XOXOXOXOXOXOX ./ ! ! ! ! ",
"/ / W :.oXoX).}.'.r.2.K J J J J ^ } [ | :.6.a.i.a.a.r.a.x.R.!.!.^. XQ.H.M.r.2.r.2.J. XOXr.n.^.OXOXOXOX XOX^./ 4.! ! Y ! ",
"/ / { ^ L.OX|. X Xc.| K J J ^ } X.| | o.r.a.a.a.a.6.6.b.^.OXOXOXOXOXoX!.B.a.a.a.a.x.c.OXu.c.OXOXOXOXOXOXOX#.3.OX( ! ! ! ",
"( / ( 6.+.|. X X XL.| [ J G K | | } } o.r.r.u.a.c.c.b. XOXOXOXOXOX).Y.F.M.a.a.m.K.OXc.a.a.V.OXOXOXOXOX~.%. . XOX .! ! ! ",
"/ ( / T. .a.OX X X{.i.X.K J [ | } } } &.X.r.a.a.M.A. X XOXOXOX X).Q.F.b.m.M.x.E.OX XOX6.( 3.c.Q.OXOXu.( a. XOXOXu./ ! ! ",
"( / / T.T./ R. X XOX~.3.| ^ [ | X.} X.X.r.%.r.r.F. XOXOX XOXOX^.E.M.m.B.b.J.!.oX X).R. X^.A.V.i.#.^ u.OXOXOXOXOX X/ ! ! ",
"/ ( ( L.OXi. .OX X X XR.+.E [ | X.X. .X.r.o.r.n. X XOXOXOXOX!.~.b.M.V.K.L.R.^. X).Q.F.^.OXOXOXn.( 3.#.3.c. X Xa. .U ! ! ",
"( ( E N.|.OX .i.OXOX XR.i.|  . .X.X.@.5.%.u.H. X X X XOX~.V.M.y.r.r.M.A.R.~.^. X~.M.y.OXOXOX3. . XOXOXY.u.#. .#.+./ ! ! ",
"( ( ( q.~.OX~.( K.OX{.b.L...~ ^ X.r.3.%.6.K.). X X X XP.y.r.X.| X.y.c.V.^. X XR.c.| b.OXOX .#.OXOXN.-.d.I.N.-._ Z / ! ! ",
"( ( ( i.g.T.OXb./  XL.Q.u.^ J J X.X.X.a.H. XOX X X!.m.&.&.X.&.&.r.y.M.R.{.(.^.V.<.x.OX^. .u.OXOXN.*.*.-.-.[ D D U ! / / ",
"( ( ( c.N.*.{.OXu. .R.c.^ ^ ~ A ^ X.X.b.^.^.{.{.R.6.^ X.X.X.X.%.r.r.V.!.).!.Y.x.R.OXL.( c.OXT.] H ' [ _ D v { [ / ! / / ",
"( ( ( c.T.' ] OX^.^ 6.c.J ^ %.| %.@.6.b.L.T.T.V.3. .%.r.%.@.| o.X.y.~.!.~.Y.H.Y.OXb.^ n.OXT.F 8 q s s s c 1.T. ./ / ! / ",
"( ( / c.|.-.v ..n.T.( :.K ^ V.^.L.V.n.N.T.R.^.T.~.^. XQ.A.5.+. .r.F.!.E.L.c.V.OXa.^ P.OXg.c 7 7 q a i s { T.T.~ ! / ( / ",
"/ ( / c.OXT.F b g.{.T. .^ K M.OXOXOXOXOXOXOXOXOXOXOX X!.N.u.W +.a.H.H.F.6.O.^.u.( ~.OXi.x < 7 q q 9 s v T.}.c.~ / / / / ",
"( / / n.|.{. .x F C.~.^.6.%.| a.L.{.OXOXOXOXOXOXOX X{./.A...R 4.x.V.V.6.} x.@. .{.OXw.r < < 7 9 i s v *.~.OX#./ / / ( / ",
"( / E N.|.n.] x i *.~.OXK.^.^.a.#.5.#.a.C.OXOXOXOX X^.n.4.' ' i.c.a.y.[ 6.X.| OX{.L.m < : $ : 8 3 k S d.(.T.E / / / / / ",
"/ / ( u.T.c.-.e y H T.OX{.a.OXOX~.I.A.i.|  .3.c.s.-...] W ' +.4.q.x.C.6./ 6.OXOX{.s.n 7 $ # < 2 w s m I.N.( / E / / / / ",
"/ / /  .g.^.-.2 i p -.^.OXb.c.OX{.g.f.~.OXQ.a. .W E ^  ...=.=.=.B.OXa.( a.OXOX XT.-.v : : @ @ > t 0 ) s.E E U E / / / / ",
"/ / / ( x.OXs.i p i z -.~.oXr.).OXT.-.s.(.OXOXOX{.n.5. .^ ( E { N.#.( T.}.}.|.{.T.' 7 : $ + : r 0 t ) E N Z U E / / / ! ",
"/ / Q / L.OXY.z p M d z ` E.F.y.OXOX~.-.g.|.OXOXOXOXOXOX{.K.a.#. .5.~.OX}.|.|.(.g.k < $ + # r 0 w S D M b Z U E / / / ! ",
"! / ! / @.OXOXD i M z z s | OX3.~.OXOXs.` (.OXOXOXOX|.OXOXOXOXOXOXOXT.OX}.}.(.T.) t 1 + . 6 0 : c E c z c C Z E ! / ! ! ",
"! ! ! T Q 5.OXw.i z N z d S c.c.i.OXOXOXn l -.).OXOXOXOX{.OX|.|.OXOXL.|.|.(.T.` t k 6   : 6 ; e U w s s b C E E / ! ! ! ",
"! ! ! T I Q @.C.N z z z M f H 1.@.^.OXOX*.& 2 c -.~.{.OXOXOX|.OXOXOXb.OXOX~.*.r t r 0 > 6 6 h b w s k c M Z Q / / / ! / ",
"! ! ! T I L U ( ` N N N S N M H ..a.OXOXC.e : 7 e F -.g.B.L.T.{.OXOXc.{.OXD.n k k t v l 7 P b e s s z c C A / ! / ! / ! ",
"! T Y Y I j j B J ' H N N S V M [  .OXOXOXF 7 8 q s n ' -.-.f.T.{.OXc.^.OX(.*.` ) m m S U c s s s k c b Z U ! / ! ! ! ! ",
"! ! Y Y I j h g h ~ K H S S G S D ^ c.OXOXg.9 e s v v n F ' g.{.{.OXc.Q.OXOXd.*.` l c E s e s s s z c b Z U ! / / / ! ! ",
"! ! ! Y Y L j h g u U W D N N S N [  . XOX~.c e x v v v v v -.{.(.|.A.A.OXOXx.] ) c U s s s s k c c b C Z U / ! ! ! ! ! ",
"! ! ! Y Y I j h g a e Z A d d c N D X.u.OXOX_ i x v v x x x F {.(.N.K.c.OXOXg.] R A p s s s z s c b C Z U U / Q ! ! ! ! ",
"! ! Y Y Y Y I j h a a q c Z 8 & & O H +.R.OXi.c b v x s x x x ] ~.N.^.u.OXOXf.R A w p p s z c c c b C P E T ! ! ! ! Y ! ",
"! ! Y Y Y Y Y L j g a q 5 p A % X o v a.u.OXC.z t x x t x x x ' {.T.|.6.OX{.W C q q p s k z c c b M Z P T T ! ! ! ! ! Y ",
"! Y ! ! Y Y Y Y P j g e w 4 4 G * O z C.( ).T.k 7 r 0 r t x n ' N.T.{.6.c.^ c 5 q p s z c c c b C Z P T T ! ! ! ! ! Y ! ",
"! ! ! ! ! ! ! Y Y P b d s q 4 , Z u i w.@.c.g.x 0 s x r x n D g N .. .~ U q 5 q w s k c c b b Z Z U U T / T ! ! ! Y ! ! ",
"! ! ! Y ! ! ! ! T U Z Z c p 5 4 - v C A E A Z M b Z B M Z Z M s e 1 < , 1 5 q p s c c b b Z Z P U U T ! Y ! ! ! ! ! ! ! ",
"Y ! Y ! ! ! ! ! ! / U P Z c s w 4 4 - - - = = = = = = # = = = - = - , 4 q w s c c b Z Z Z Z U U U T ! ! ! ! ! ! Y ! ! ! ",
"! ! ! ! ! ! ! ! ! / ! / Q P Z c s e 5 5 1 1 1 1 < < , < < < 1 1 3 q q a g x b b Z Z P E E U U ! ! ! ! ! ! ! ! ! ! Y ! ! ",
"! ! Y ! ! ! ! ! / / / / / ! U Z M b g d a a a a a e a i a i p a s g g b C Z Z U E U U E T / E ! ! T ! ! ! ! ! ! Y ! ! ! ",
"! ! ! ! ! ! ! ! / / / / / / / / U P Z C C j h h h h h h h h h h C Z Z P E E E T / E / / / T / ! ! ! ! ! Y ! ! ! ! ! ! Y ",
"! Y ! ! ! ! ! ! / / / / / / / / E T T Y Y I I I I I I I I Y P I T U U / / E / / / / T / / ! ! ! ! ! ! ! ! Y ! ! Y ! ! ! "
};
