/* XPM */
static char *_fff34090dd64133f6377013938b0499HRmIC8VWR6cqu7ap[] = {
/* columns rows colors chars-per-pixel */
"60 60 177 2 ",
"   c #0E0E0E",
".  c #141414",
"X  c #1C1C1C",
"o  c #242424",
"O  c #2C2C2C",
"+  c #272D31",
"@  c #2A2F34",
"#  c #2E3133",
"$  c #333333",
"%  c #393735",
"&  c #36393A",
"*  c #3A3C3C",
"=  c #46301B",
"-  c #4E3D2D",
";  c #58442F",
":  c #5A4430",
">  c #3C3F40",
",  c #3A4246",
"<  c #434545",
"1  c #434748",
"2  c #454C4D",
"3  c #4D4D4D",
"4  c #474F50",
"5  c #475153",
"6  c #4A5254",
"7  c #4D585A",
"8  c #535353",
"9  c #535C5E",
"0  c #5B5B5B",
"q  c #525E61",
"w  c #536366",
"e  c #5A6567",
"r  c #566669",
"t  c #5A6B6D",
"y  c #5C6E72",
"u  c #5E7276",
"i  c #656565",
"p  c #6A6C63",
"a  c #6B6B6B",
"s  c #7E7063",
"d  c #627375",
"f  c #62777A",
"g  c #637A7D",
"h  c #69787B",
"j  c #727673",
"k  c #7B7B7B",
"l  c #965E2B",
"z  c #E4750E",
"x  c #E87D19",
"c  c #C37528",
"v  c #C77E35",
"b  c #AC7840",
"n  c #78837D",
"m  c #F28219",
"M  c #C9843F",
"N  c #E68223",
"B  c #EA8323",
"V  c #EB872B",
"C  c #F28722",
"Z  c #F48822",
"A  c #E18E3C",
"S  c #F2953E",
"D  c #8F8874",
"F  c #B0966F",
"G  c #CA8846",
"H  c #CC8944",
"J  c #EE9949",
"K  c #F1A258",
"L  c #EFA96B",
"P  c #F2AE6E",
"I  c #F1AF71",
"U  c #F2B377",
"Y  c #667E83",
"T  c #678185",
"R  c #6A8185",
"E  c #6C8589",
"W  c #6E898E",
"Q  c #7E8183",
"!  c #768888",
"~  c #738D92",
"^  c #788E92",
"/  c #739196",
"(  c #75959B",
")  c #7A9498",
"_  c #78969B",
"`  c #7C9A9F",
"'  c #7C9DA2",
"]  c #7EA0A6",
"[  c #7FA2A9",
"{  c #838383",
"}  c #888C8A",
"|  c #84948E",
" . c #869999",
".. c #939393",
"X. c #989898",
"o. c #AF9B90",
"O. c #90A09A",
"+. c #B0A593",
"@. c #819EA3",
"#. c #959EA0",
"$. c #84A4AA",
"%. c #88A5A9",
"&. c #8BA7AA",
"*. c #85A8AE",
"=. c #96A2A2",
"-. c #97A7A9",
";. c #9EAAAC",
":. c #85ACB3",
">. c #8CAEB3",
",. c #8DB1B7",
"<. c #8BB4BB",
"1. c #92B5BA",
"2. c #95B6BB",
"3. c #93B8BE",
"4. c #A4A4A4",
"5. c #A3A9A6",
"6. c #ACACAC",
"7. c #B3ACA7",
"8. c #ACB0B4",
"9. c gray70",
"0. c #BBBBBB",
"q. c #E5B688",
"w. c #D4B6A5",
"e. c #EECBAF",
"r. c #FDCFB5",
"t. c #8FBBC3",
"y. c #94BCC3",
"u. c #99BEC4",
"i. c #9AC1C7",
"p. c #94C2CA",
"a. c #9BC4CB",
"s. c #9EC8CF",
"d. c #9BCBD4",
"f. c #9CCFD8",
"g. c #9FD3DC",
"h. c #A1C6CC",
"j. c #A2C8CE",
"k. c #A2CCD3",
"l. c #AACCD1",
"z. c #A6D0D7",
"x. c #A9D0D7",
"c. c #A3D4DC",
"v. c #A9D5DC",
"b. c #ABD8DF",
"n. c #B0D4DA",
"m. c #A5DBE5",
"M. c #ADDBE3",
"N. c #A7DEE8",
"B. c #B1DEE5",
"V. c #ABE2EC",
"C. c #B8E0E7",
"Z. c #B4E4EC",
"A. c #BAE5EC",
"S. c #C6C6C6",
"D. c #CCCCCD",
"F. c #D5D5D5",
"G. c #DADADA",
"H. c #FCDDC3",
"J. c #FCDDCC",
"K. c #FBE4CF",
"L. c #FCE4D2",
"P. c #FFEDDB",
"I. c #C1E6EC",
"U. c #E4E4E4",
"Y. c #E6E9ED",
"T. c #EBEBEB",
"R. c #FEEEE5",
"E. c #FEEFE8",
"W. c #FFF0E5",
"Q. c #FEF4EE",
"!. c #F1F1F1",
"~. c #F4F4F4",
"^. c #FFF9F4",
"/. c #F7F8F8",
"(. c gray99",
"). c #FFFFFE",
"_. c #FFFFFF",
/* pixels */
"V.V.V.V.V.V.V.V.V.Z.V.V.Z.Z.Z.Z.A.Z.A.A.A.A.A.A.A.A.I.I.I.I.I.I.I.I.I.I.I.A.A.Z.Z.Z.V.V.V.V.V.V.V.V.V.Z.V.Z.Z.Z.A.Z.Z.A.",
"V.V.V.V.V.V.V.V.V.V.Z.Z.Z.Z.Z.A.Z.A.A.Z.A.A.A.A.A.I.A.I.I.I.I.I.I.I.I.A.A.A.A.A.V.Z.Z.V.V.V.V.V.V.V.V.Z.Z.Z.Z.Z.Z.Z.Z.Z.",
"V.V.V.V.V.V.V.V.V.Z.Z.Z.Z.Z.A.Z.Z.A.A.Z.A.A.A.A.I.I.I.I.I.I.I.I.I.A.A.A.A.A.Z.Z.Z.V.V.V.V.V.V.V.V.V.Z.V.Z.Z.Z.Z.Z.Z.Z.Z.",
"V.V.V.V.V.V.V.V.Z.Z.Z.A.Z.A.Z.A.A.A.A.A.A.A.A.A.A.I.I.I.I.I.I.I.I.A.A.A.A.Z.V.V.V.V.V.V.V.V.V.V.V.V.Z.Z.Z.A.Z.Z.A.Z.Z.Z.",
"V.V.Z.V.Z.V.Z.Z.Z.Z.A.A.A.Z.A.A.A.A.A.Z.A.A.I.A.I.I.I.I.I.I.I.A.A.A.A.A.Z.Z.V.V.V.V.V.V.V.V.V.Z.V.Z.Z.Z.Z.Z.A.Z.Z.Z.Z.V.",
"Z.V.V.V.Z.Z.Z.Z.Z.A.A.Z.A.A.Z.A.A.Z.A.A.A.A.A.A.A.I.A.I.I.I.A.I.A.A.Z.Z.V.V.V.V.V.V.V.V.V.V.V.V.Z.Z.Z.Z.Z.Z.Z.Z.Z.Z.Z.Z.",
"V.Z.Z.Z.Z.Z.A.Z.A.Z.Z.A.Z.A.Z.A.A.Z.A.Z.A.A.A.I.I.I.I.I.I.I.I.A.Z.A.Z.Z.V.V.V.V.V.V.V.V.V.V.V.Z.Z.Z.Z.Z.Z.Z.Z.Z.Z.Z.V.V.",
"V.Z.Z.Z.A.Z.Z.A.A.Z.A.A.Z.A.A.Z.Z.A.A.A.A.A.A.I.I.I.I.I.A.A.A.A.Z.Z.Z.Z.V.V.V.V.V.V.V.V.V.V.V.V.Z.Z.Z.A.Z.Z.A.Z.Z.V.V.V.",
"Z.Z.A.Z.Z.A.A.A.Z.A.A.Z.A.Z.Z.A.C.A.A.A.A.A.I.A.A.` * , 2 1 1 1 1 5 i.V.V.V.V.V.V.V.V.V.V.Z.Z.Z.Z.Z.Z.Z.Z.Z.Z.Z.V.V.V.V.",
"Z.Z.Z.A.Z.A.A.A.A.Z.Z.A.A.Z.A.Z.Z.A.A.A.I.I.h. .@.w $ $ $ $ $ $ $ & R ' ] d.V.V.V.V.V.V.V.V.Z.Z.Z.Z.Z.Z.Z.Z.Z.Z.Z.V.V.V.",
"Z.Z.A.A.A.A.Z.A.A.A.A.Z.Z.Z.Z.Z.A.A.A.B.l.j.d $ % $ $ $ $ $ $ $ $ $ $ $ & ` d.f.N.V.V.Z.Z.Z.Z.Z.Z.Z.Z.A.Z.V.Z.Z.Z.V.V.V.",
"A.A.A.Z.Z.A.A.Z.Z.Z.Z.Z.Z.Z.Z.A.Z.A.A.^ 3 3 * $ $ $ % $ $ $ $ $ $ $ $ $ $ , 2 7 y.V.V.V.Z.Z.Z.Z.A.Z.Z.Z.Z.Z.Z.V.V.V.V.V.",
"A.Z.A.Z.A.Z.Z.Z.Z.Z.Z.Z.Z.Z.Z.A.A.I. .6 $ $ $ $ o o O $ $ $ $ $ $ o o o $ $ $ $ u i.V.Z.Z.Z.Z.Z.Z.Z.A.Z.V.Z.Z.V.V.V.V.V.",
"Z.A.A.Z.Z.Z.Z.Z.Z.Z.Z.Z.Z.Z.A.A.x.2.$ $ $ # O & 8 0 3 $ $ $ $ O * 0 0 3 $ O # $ # r y.M.Z.Z.A.Z.Z.Z.Z.Z.Z.V.V.V.V.V.V.V.",
"A.A.Z.A.A.Z.Z.Z.Z.Z.Z.Z.A.Z.A.A.^ 2 $ $ $ o X 8 U.T.9.$ o & % o 0 U.U.0.X o O $ $ * 4 s.Z.Z.Z.Z.A.Z.Z.Z.V.V.Z.V.V.V.V.V.",
"Z.Z.Z.Z.Z.Z.Z.Z.Z.Z.Z.Z.A.A.A.A.! $ $ O * 6.6.S._._.!.0.5 X X D S._._./.6.9.{ o O $ $ k.A.Z.Z.A.Z.Z.Z.V.Z.V.V.V.V.V.V.V.",
"Z.Z.Z.Z.Z.Z.Z.Z.Z.Z.Z.A.A.A.A.n.h $ $ < j _._._._._._._...3 3 F._._._._._._.D.8 $ $ & >.v.Z.Z.Z.V.V.V.V.V.V.V.V.V.N.V.V.",
"Z.Z.Z.Z.Z.V.Z.Z.Z.Z.A.A.A.A.l.e * $ X X.T._._._._._._._.!.U.U.~._._._._._._.~.U.8 X $ < ~ V.Z.Z.V.V.V.V.V.V.V.V.V.V.V.V.",
"V.Z.Z.V.V.Z.Z.Z.Z.A.A.A.A.A.l.3 O < 4.U._.~.9.a k D._._._._._._._./.4.a { F._._.F.k $ # R C.Z.Z.V.V.V.V.V.V.V.N.V.V.N.V.",
"Z.V.Z.V.Z.Z.Z.Z.Z.A.A.A.A.I.l.6 O 3 !._._.^.Y   O 9._._.R.L.L.^._.!.i . $ 0._._._.6.$ O E C.Z.Z.V.V.V.V.V.V.V.N.V.V.V.V.",
"Z.V.Z.Z.Z.Z.Z.A.A.A.A.A.I.I.l.6 O 3 !._._.~.{ . # 9._.^.I x x L._./.i X $ 0._._._.6.$ # ! M.Z.Z.V.V.V.V.V.N.V.V.N.V.V.V.",
"V.Z.V.Z.Z.A.A.Z.A.A.A.I.I.>.e * O 3 !._.^.K.w.o.0.Y.P.I V x z J q.(.D.7.+.e.E._._.6.$ O 5 f c.V.V.V.V.V.V.V.V.V.V.V.N.V.",
"Z.Z.Z.Z.Z.Z.A.A.A.A.A.I.I.R $ $ o 3 !._.^.r.r.P._._.L.K J K K J U _._._.H.r.J._._.6.$ O $ $ k.V.V.V.V.V.V.V.N.V.V.V.V.N.",
"Z.Z.Z.Z.Z.A.A.A.I.A.I.A.B.! $ $ O 3 !._.^.H.r.J._._._._._._._._._._._.Q.r.r.L._._.6.$ O $ * d.V.V.V.V.V.V.V.V.N.V.V.V.V.",
"Z.Z.Z.A.Z.A.A.A.A.I.A.l.^ 6 $ $ O 3 _._._.E.R.Q._._._._._._._._._._._.^.W.E.Q._.(.0.$ O # & y ' V.V.V.V.V.V.N.V.V.V.V.V.",
"Z.Z.Z.A.A.A.A.A.I.A.A.h.1 $ $ % O < 9.Y._._._._._._._._._._._._._._._._._._._._.F.n $ # $ # # r V.V.V.V.N.V.V.V.V.V.V.V.",
"Z.Z.A.A.A.A.A.I.A.A.A.h.6 $ $ $ $ $ O 6./.^.^.^._._._._._._._._._._.(.(.(._._.~.p o $ $ $ $ $ n V.V.V.V.N.V.V.V.V.V.V.V.",
"A.A.Z.A.A.A.A.A.A.A.2.9 * $ $ $ $ $ O 8 a a i .._._._._._._._._._._.(.T.i i a i & O $ $ $ $ & , W N.V.V.V.V.V.V.V.V.V.V.",
"Z.A.A.A.A.A.A.A.B.1.t $ $ $ $ $ $ $ $ O o o X < 9.9.9.9.9.9.9.9.9.9.9...o o o o $ $ $ $ $ $ $ $ @ ( f.V.V.V.V.V.V.V.V.V.",
"A.A.A.A.I.A.A.A.z.6 % $ $ $ $ $ $ $ $ $ # $ % $ $ $ % % $ $ & $ % % % $ # $ $ $ $ $ $ $ $ $ $ $ @ @ T N.V.V.V.N.V.V.V.V.",
"A.A.A.A.A.A.A.A.l.4 $ $ $ $ $ $ $ $ $ $ $ $ $ $ # O O O O O # # O O O O $ $ $ $ $ $ $ $ # $ & @ , @ R N.V.V.N.V.V.Z.V.Z.",
"A.A.A.A.A.A.Z.v.` < $ $ $ $ $ $ $ $ $ $ $ $ $ $ $ $ $ $ $ $ O $ $ $ $ $ $ $ $ $ $ $ $ $ # & # & @ @ r t.N.V.V.V.V.V.V.Z.",
"A.A.A.A.A.Z.B.@.$ $ $ $ $ $ $ $ $ $ $ $ $ $ $ $ $ $ % $ $ & % $ $ % $ $ $ $ $ $ $ $ $ $ $ $ $ $ $ $ $ 4 t.V.V.V.V.V.Z.Z.",
"A.Z.A.Z.Z.A.t 2 $ $ $ $ $ $ $ $ $ $ $ $ $ $ $ o O X.U.F.F.F.F.G.G.D.8 o O # $ $ $ $ $ $ $ $ $ $ $ $ $ * 2 ] V.V.Z.Z.Z.Z.",
"Z.A.A.Z.A.Z.% # $ $ $ $ $ $ $ $ $ $ $ $ O O 0 k { F._._._._._._._.(.4.k k < o $ $ $ $ $ $ $ $ $ $ $ $ $ $ E V.V.V.Z.Z.Z.",
"A.A.A.Z.Z.Z.7 4 2 2 > $ $ $ $ $ $ $ $ $ # < 0._._._._._._._._._._._._._._.} O $ $ $ $ $ $ $ $ $ & , 2 2 , ` V.Z.Z.Z.Z.Z.",
"Z.A.Z.Z.Z.Z.d.a.p.p.Y # $ $ $ $ $ $ $ O < F.T._._._._._._._._._._._._._._.T.X.o O $ $ $ $ $ $ $ * *.a.p.p.c.V.Z.Z.Z.Z.Z.",
"Z.Z.Z.Z.Z.Z.Z.V.V.V.p.u > $ $ $ $ $ O i 4._._._._._._._._._._._._._._._._._.T.} < O $ $ $ $ $ 3 ( V.V.V.V.Z.Z.Z.Z.Z.Z.Z.",
"A.Z.Z.Z.Z.Z.V.Z.V.V.V.d.6 $ $ $ $ $ O 9._._._._._._._._._._._._._._._._._._._._.a o $ $ $ $ $ g V.V.V.Z.Z.V.Z.Z.Z.Z.Z.A.",
"Z.Z.Z.Z.Z.V.V.V.V.V.V.u.6 $ $ $ $ $ o 6._._._._._._._._._._._._._._._._._._._.~.i o $ $ $ $ $ f V.V.V.V.Z.Z.Z.Z.Z.Z.Z.Z.",
"Z.Z.Z.Z.V.V.V.V.V.V.V.p.5 @ $ $ $ $ O 6._._._._._._._._._._._._._._._._._._._.~.i o $ $ $ $ $ f V.V.Z.V.Z.Z.Z.A.Z.Z.Z.V.",
"Z.Z.V.V.V.V.V.V.V.V.V.p.5 & $ $ $ $ O 4._._._._._._._._._._._._._._._._._._._.~.i o $ $ $ $ $ f Z.V.Z.Z.Z.Z.Z.Z.Z.Z.Z.V.",
"V.Z.V.V.V.V.V.V.V.V.N.t.5 $ $ $ $ $ o 9._._._._._._._._._._._._._._._._._._._._.a o $ $ $ $ $ f V.Z.Z.Z.Z.Z.Z.Z.A.Z.V.V.",
"V.V.V.V.V.V.V.V.V.N.N.t.5 $ $ $ $ $ O i 4.^._._._._._._._._._._._._._._._._.G.} 1 O $ $ $ $ $ f Z.Z.Z.Z.A.Z.Z.A.Z.Z.V.V.",
"V.V.V.V.V.V.V.V.N.m.g.<.4 @ $ $ $ $ $ O 3 _._._._._._._._._._._._._._._._._.0.o o $ $ $ $ $ $ d Z.Z.Z.Z.Z.Z.Z.Z.Z.Z.Z.V.",
"V.V.V.V.N.V.N.N.N.g.d.[ 4 $ $ $ $ $ $ @ 8 !._._._._._._._._._._._._._._._.^.9.$ O $ $ $ $ $ & y M.Z.Z.Z.Z.Z.Z.Z.Z.V.Z.V.",
"V.V.V.V.V.V.V.N.m.f.p.t./ 4 $ $ @ @ @ O , Q D._._._._._._._._._._._._._.~.8.q @ + @ @ $ $ $ h @.v.V.Z.Z.Z.Z.Z.Z.Z.Z.V.V.",
"V.V.V.V.V.V.N.N.m.f.y.t.t.E 1 & - : : ; - = 7._._._._._._._._.(._._._._.T.s = : : : : % * 5 &.1.g.V.Z.Z.Z.Z.Z.Z.V.V.V.V.",
"V.V.V.N.V.V.V.N.b.f.p.t.<.,._ , l N B B N N e.^._.(.(.(.(.(.(.(._.(.(.(.Q.L z N N B N ; 9 ] $.>.i.z.C.V.Z.Z.V.V.V.V.V.V.",
"V.V.V.V.N.V.V.N.m.f.p.p.<.<.&.T D F Z Z C C K q.5.1.;.-.-.=.=.=.#.X.=.+.I S m C C A F n W ] $.>.i.v.M.Z.Z.Z.Z.V.V.V.V.V.",
"V.V.V.V.V.V.V.V.V.g.d.p.y.3.,.,.-.&.H H M M M b u u u u t r w q q w w p c v G G H F $.$.$.$.&.1.h.v.V.C.Z.V.V.V.V.V.V.N.",
"V.V.V.V.V.V.V.V.V.m.g.s.i.y.3.3.2.>.-.O.| D n n T T u u d u t r w w t u j n ! | O. .$.$.&.*.>.i.l.M.C.V.Z.Z.V.V.V.V.N.V.",
"V.V.N.V.N.N.V.V.V.V.b.z.s.i.i.u.3.3.2.>.*.' _ ~ / W W T T T T u f g T E W / _ ' $.&.>.>.,.1.i.j.v.C.V.Z.V.V.V.V.N.V.V.V.",
"V.N.V.V.V.V.V.V.V.V.V.b.v.k.i.i.i.i.y.1.<.:.*.$.[ [ ] ' ( ( ( ( / ( ( ' ] $.*.>.,.1.2.1.i.j.z.v.V.V.Z.V.V.V.V.V.V.V.V.V.",
"V.V.V.V.N.V.V.V.V.Z.C.V.M.v.v.k.j.a.p.i.p.3.<.<.<.[ <.:.:.:.[ [ :.:.:.<.<.1.1.3.i.i.s.z.v.b.C.V.C.V.V.V.V.V.V.V.V.V.V.V.",
"N.V.V.V.V.V.V.V.V.Z.V.Z.C.V.V.V.v.x.l.d.a.a.a.p.p.p.p.p.p.p.p.p.p.p.p.p.a.s.s.z.z.v.v.b.C.Z.Z.Z.Z.V.V.V.V.V.V.V.V.V.N.N.",
"V.V.N.V.V.V.V.V.V.Z.Z.Z.Z.Z.A.V.C.b.b.c.c.c.c.f.g.g.g.g.g.g.g.g.g.c.c.c.v.v.b.b.C.C.V.Z.Z.Z.Z.Z.V.V.V.V.V.V.N.V.V.N.V.V.",
"V.N.V.V.V.V.V.V.V.Z.Z.Z.Z.Z.Z.Z.V.C.V.V.m.m.V.V.V.m.m.V.m.m.V.V.V.V.V.B.V.C.Z.Z.Z.Z.Z.Z.Z.Z.V.V.V.V.V.V.N.V.V.V.V.V.V.V.",
"V.V.V.V.V.V.V.V.Z.Z.Z.Z.Z.Z.Z.Z.Z.Z.V.V.V.V.V.V.V.N.V.V.V.V.V.V.V.V.V.C.Z.Z.Z.Z.Z.Z.Z.Z.Z.V.Z.V.V.V.V.V.N.V.V.V.V.V.V.V.",
"N.V.V.V.V.V.V.V.Z.Z.Z.Z.A.Z.Z.Z.Z.V.Z.V.V.V.V.V.V.V.N.V.V.V.V.V.Z.Z.Z.A.Z.C.Z.Z.Z.Z.Z.Z.Z.V.V.V.V.V.V.V.V.V.V.V.V.V.V.N."
};
