/* XPM */
static char *_5c0d261c7424f1bbe677e3d0238ae87NEhmvX9UAsovWpky[] = {
/* columns rows colors chars-per-pixel */
"60 60 50 1 ",
"  c #A9E2EC",
". c #AAE2EC",
"X c #ABE2EC",
"o c #ACE2EC",
"O c #ADE2EC",
"+ c #ACE3EC",
"@ c #ADE3EC",
"# c #AEE2EC",
"$ c #AEE3EC",
"% c #AFE3EC",
"& c #AFE4EC",
"* c #B0E3EC",
"= c #B1E3EC",
"- c #B2E3EC",
"; c #B3E3EC",
": c #B5E3EC",
"> c #B0E4EC",
", c #B1E4EC",
"< c #B2E4EC",
"1 c #B3E4EC",
"2 c #B4E4EC",
"3 c #B5E4EC",
"4 c #B4E5EC",
"5 c #B5E5EC",
"6 c #B6E4EC",
"7 c #B7E4EC",
"8 c #B6E5EC",
"9 c #B7E5EC",
"0 c #B8E4EC",
"q c #B9E4EC",
"w c #B8E5EC",
"e c #B9E5EC",
"r c #BAE5EC",
"t c #BBE5EC",
"y c #B9E6EC",
"u c #BAE6EC",
"i c #BBE6EC",
"p c #BCE5EC",
"a c #BDE5EC",
"s c #BCE6EC",
"d c #BDE6EC",
"f c #BEE6EC",
"g c #BFE6EC",
"h c #BFE7EC",
"j c #C0E6EC",
"k c #C1E6EC",
"l c #C0E7EC",
"z c #C1E7EC",
"x c #C2E6EC",
"c c #C2E7EC",
/* pixels */
"       o+@@o<*<22u2u000sssallxxxllllaa002<o<@  o o@@<<222222",
"     oo@@@<<222uu0u00ssssslxllxllllsaq02<<@ ooo  @o*<<220202",
"   oo @@<<2220020u2us00sssllaxllslhhq22*@@@o   o@o@*2222222<",
" ooo@<o<<222020uu0u00ssslllllxxxhh002:<*@oo o  o@<<<2022222<",
" @@o<**22202u0u20uu0ussslslaxlxass02<<<@o o   o@**222202222*",
"@o<**<222u0u2u0uy0000hslaaxxxasss002*@ooo    o <*<2222222<<<",
"<o<22220y2u0u0u0220uuhsslxlxllss002<o@o     o@@o<<2222022<o<",
"<<2220200u2u2u2y0u0uusslaxalassq22*@oo o   o@@<*222202222o<@",
"<2200u0u0u2u0u20200qasxlsllsssqq2<@o o   o oo**<22222222*<o ",
"22202uu2u2y0022000sassasaxsssq::@<o       o@@*<22202222<*o@o",
"2000u0u0u022222y00qsslxasssa022<@o o     o@@<<2222222<<<@@  ",
"00002u2u2222<y200sssaxlllaaq2<<ooo      o@@o<220202222o@@oo ",
"u0u0y2222222222ussssllssss022<ooo      oo@<*22220222<<@@    ",
"2u2yy222<2222000hsllslls000<<o o     o  @@*<20222222<o@@o   ",
"uu20222<<<2200ussslslshh002<@ o       o@<o<<2222022<*@@o    ",
"2222<<<<<2220u0hlllsss0022@<oo       o <o<22220222<oo@o     ",
"2<2<@<<<<:q2qasallass00y<@@oo      oo@o<*<222222<<<@@oo     ",
"2<<*<<<2220qasslassas002<@oo         @**<2220202<<o@o       ",
"<***<<2220qssslsssaa02<<@o       o  @**<2220222<**@+        ",
"***<<<2000asssssasqq2:*@@ o       o@@<<<222222<<<o@oo       ",
"*@<<<22000huslsaaq022<@oo        o@o*<22022222<<o@          ",
"<<**20000hshlssa002:<@@o         @@<*222222222o<@o o        ",
"*:<2200ssssssss0002<*@o        oo@**<22002022**@o           ",
"*222200sssssss0022<oo          o@o*<22222222**o@oo          ",
"222200shssss00022<<@oo        o@o<<<222022<<<@@o            ",
"2200ush0sssss022*@oo         o@@*<2222222<<*o@              ",
"20000huhs0s0002**oo          o@@*22222222<o<@o o            ",
"000ss0h0h00022<*@@o        oo@@<222202022*<@o              o",
"0000uss000022*@@@o         o@o<<22202222<<o@o              @",
"u0hhsss00022<<@@          o@@<<<222222<<*o@ o            o@@",
"0uh00000022<*o@oo        o@@**<2202222<*@@o             ooo*",
"0u0su00022<*<@o        o oo**<22220222*<@o             ooo<*",
"u0h002020<o<oo        o o@<o<2202022<**@@              o@o<<",
"0uu200222<<@o o         @@<<22222222<<o@o           o o@@<<<",
"0u000222<<o@o         o@o*<<2220222<<o@o             o@o*<22",
"u00222<<o@@          o@@<*<2022222<*@@  o         o o@@<<222",
"222222<@@@o        o oo**<22202222<*oo o          o @oo<<222",
"202222<@@o          o@@*<22222222*@@@o            o@@<<22220",
"0222<<@@o o         @@*<22202222<<o@ o           o@o<<222202",
"2222<@@oo        o +o<<22222022<*o@o           oo@@**<202222",
"2<<<@@@o         ooo@<222222222o<@oo         o o@<o*22222222",
"<<*@@@ o         o@<*<2202022<<<oo             @o*<22220022<",
"*o@@@o        o o@<o<22222222<@@+          o  @@**222202222<",
"<@@oo          o <o<<222022<<*@@o o         o+o<*222222222<<",
" oo o         o@o<*222022222<o@o o          @@<*222222222<**",
"o o          oo@**<2022222<*@@o           o@@@*<20222222<*<o",
"             o@@*<2222222<**@@ o         o@@**<2222202<<o<o ",
"            o@o<222202222<<o@o          ooo**<22202222<*<@@ ",
"          oo@@*<<2202222<<o@          oo@@<<<<20222222**@+  ",
"           @@@*222222222o<@o o         o@oo2222202222*<o@o  ",
"        o o@<<<22020222*@@o           o@**<222222222*<o@o   ",
"       o  @@o2<2222222**@@oo        oo@@*<222220222*o@@ o   ",
"         @@o<22022222<*ooo         oo@@<<222202222<@@@      ",
"       o@o<<2222022<<*@@o        o  @@*<22222222<**@@oo     ",
"       @o<*22222222<o<@oo         o@o*<<2002202<**@@oo      ",
"    o o@**222202222*<@o          o@o<<<2222222<*<o@o        ",
"     o@o<<<2220222<o@@o         o@@<<22202022<<<o@          ",
"     @@<<<22202222o<oo         o@@**222222222<<o@o o        ",
"  o o@*<22222222<<<oo        oo <o*222222222<o<@o           ",
"   oo**22202222<*@@o         oo<o:222002222<<@oo o          "
};
